<?xml version="1.0" encoding="utf-8"?>
<!-- Generator: Adobe Illustrator 18.0.0, SVG Export Plug-In . SVG Version: 6.00 Build 0)  -->
<!DOCTYPE svg PUBLIC "-//W3C//DTD SVG 1.1//EN" "http://www.w3.org/Graphics/SVG/1.1/DTD/svg11.dtd">
<svg version="1.1" id="Layer_1" xmlns="http://www.w3.org/2000/svg" xmlns:xlink="http://www.w3.org/1999/xlink" x="0px" y="0px"
	 viewBox="0 0 459.6 65.6" enable-background="new 0 0 459.6 65.6" xml:space="preserve">
<g>
	<path fill="#0A7185" d="M56.6,65.1h17.6L45.3,0H26.5L0,65.1h17.5l4.9-13h28.8L56.6,65.1z M26.7,40.8l9.4-24.8l10.4,24.8H26.7z"/>
	<path fill="#0A7185" d="M126.3,49.1c-1.4-2.9-3.4-10.6-10.3-14.1c0,0,11-3.6,11-15.9c0-11-8.6-19-22.5-19C93.5,0,77,0,77,0v65.1
		h16.1V38.4c0,0,9.5-1.8,13,5.4l9.8,21.2h17.8C133.7,65.1,127.6,51.9,126.3,49.1z M103.6,27.1L103.6,27.1l-10.6,0v-15h10.6v0
		c3.9,0.2,7.1,3.5,7.1,7.5S107.6,26.8,103.6,27.1z"/>
	<polygon fill="#0A7185" points="138.6,65.1 154.6,65.1 154.6,24.6 172.1,44.9 174.5,44.9 191.7,24.6 191.7,65.1 208,65.1 208,0 
		194.1,0 173.3,24.5 152.7,0 138.6,0 	"/>
	<g>
		<path fill="#0A7185" d="M218.9,0.1c1.2,0,2.2,0.3,3.2,0.9c1,0.6,1.8,1.4,2.4,2.4c0.6,1,0.9,2.1,0.9,3.2c0,1.2-0.3,2.2-0.9,3.2
			c-0.6,1-1.4,1.8-2.4,2.4c-1,0.6-2.1,0.9-3.2,0.9c-1.2,0-2.2-0.3-3.2-0.9c-1-0.6-1.8-1.4-2.4-2.4c-0.6-1-0.9-2.1-0.9-3.2
			s0.3-2.2,0.9-3.2c0.6-1,1.4-1.8,2.4-2.4C216.7,0.4,217.7,0.1,218.9,0.1z M218.9,1.2c-1.5,0-2.8,0.5-3.8,1.6s-1.6,2.3-1.6,3.8
			c0,1.5,0.5,2.8,1.6,3.8c1.1,1,2.3,1.6,3.8,1.6c1.5,0,2.8-0.5,3.8-1.6c1.1-1.1,1.6-2.3,1.6-3.8s-0.5-2.8-1.6-3.8
			S220.4,1.2,218.9,1.2z M217.4,10h-1.1V3.1h2.4c0.9,0,1.5,0.1,1.8,0.2c0.4,0.1,0.6,0.4,0.8,0.7c0.2,0.3,0.3,0.6,0.3,1
			c0,0.5-0.2,1-0.6,1.3c-0.4,0.4-0.8,0.6-1.4,0.6c0.3,0.1,0.5,0.3,0.7,0.5c0.2,0.2,0.5,0.7,0.9,1.2l0.8,1.4h-1.4l-0.6-1.1
			c-0.4-0.8-0.8-1.3-1-1.5c-0.3-0.2-0.6-0.3-1-0.3h-0.7V10z M217.4,4v2.1h1.4c0.6,0,1-0.1,1.3-0.3c0.3-0.2,0.4-0.4,0.4-0.8
			c0-0.4-0.1-0.7-0.4-0.8c-0.3-0.2-0.7-0.2-1.4-0.2H217.4z"/>
	</g>
	<g>
		<g>
			<path fill="#179CB6" d="M266.8,34.1v30.8h-8.4V41.3c0-4.7-0.6-8-1.9-9.8c-1.3-1.9-3.5-2.8-6.6-2.8c-1.8,0-3.4,0.4-4.8,1.2
				c-1.5,0.8-3.1,2.2-5,4.2v30.8h-8.4V22.4h8.4V28c4.3-4.3,8.5-6.4,12.5-6.4c5.4,0,9.5,2.6,12.5,7.7c4.5-5.2,9.2-7.7,14.1-7.7
				c4.1,0,7.5,1.5,10.2,4.5c2.7,3,4,7.6,4,13.8v25h-8.4V39.7c0-3.5-0.7-6.2-2.2-8.1s-3.5-2.8-6.2-2.8
				C273.1,28.8,269.8,30.6,266.8,34.1z"/>
			<path fill="#179CB6" d="M304.5,0.4h8.4v25c3.6-2.6,7.5-4,11.6-4c5.4,0,9.8,2,13.2,6.1c3.4,4.1,5.1,9.3,5.1,15.6
				c0,6.8-2,12.3-6.1,16.3s-9.5,6.1-16.4,6.1c-2.7,0-5.6-0.3-8.6-0.9s-5.4-1.3-7.2-2.2V0.4z M312.9,33.5v23c2.9,0.9,5.8,1.3,8.8,1.3
				c3.7,0,6.8-1.3,9.1-4c2.4-2.6,3.5-6,3.5-10.2c0-4.2-1.1-7.6-3.3-10.3c-2.2-2.6-5.1-4-8.6-4C319.3,29.4,316.1,30.7,312.9,33.5z"/>
			<path fill="#179CB6" d="M388.3,44.4h-29.8c0.2,4.1,1.6,7.3,4.1,9.7c2.5,2.4,5.7,3.6,9.7,3.6c5.5,0,10.6-1.7,15.3-5.2v8.2
				c-2.6,1.7-5.1,3-7.7,3.7c-2.5,0.7-5.5,1.1-8.9,1.1c-4.7,0-8.5-1-11.3-2.9c-2.9-1.9-5.2-4.5-6.9-7.8c-1.7-3.3-2.6-7.1-2.6-11.4
				c0-6.5,1.8-11.7,5.5-15.8c3.7-4,8.4-6.1,14.3-6.1c5.6,0,10.1,2,13.5,5.9c3.4,3.9,5,9.2,5,15.8V44.4z M358.6,39.4H380
				c-0.2-3.4-1.2-5.9-3-7.7s-4.2-2.7-7.2-2.7s-5.5,0.9-7.4,2.7S359.2,36,358.6,39.4z"/>
			<path fill="#179CB6" d="M425.7,0.4h8.4v64.4h-17.9c-6.3,0-11.3-2-15-6c-3.7-4-5.6-9.3-5.6-16c0-6.2,2-11.4,5.9-15.4
				c3.9-4,8.9-6,15-6c2.8,0,5.9,0.6,9.2,1.8V0.4z M425.7,57.7V30.8c-2.6-1.3-5.3-2-7.9-2c-4.2,0-7.5,1.4-10,4.1
				c-2.5,2.7-3.7,6.4-3.7,11.1c0,4.4,1.1,7.7,3.2,10.1c1.3,1.4,2.7,2.4,4.1,2.9c1.4,0.5,4,0.7,7.8,0.7H425.7z"/>
		</g>
		<g>
			<path fill="#179CB6" d="M447.2,9.1h-1.5V1.7H443V0.4h7.1v1.3h-2.8V9.1z M452.4,9.1H451V0.4h2.1l2.2,6.9l2.1-6.9h2.1v8.7h-1.3V1.8
				L456,9.1h-1.3l-2.3-7.4V9.1z"/>
		</g>
	</g>
</g>
</svg>
